<svg width="640" height="480" xmlns="http://www.w3.org/2000/svg" xmlns:svg="http://www.w3.org/2000/svg" xmlns:xlink="http://www.w3.org/1999/xlink">
 <!-- Created with SVG-edit - http://svg-edit.googlecode.com/ -->
 <defs>
  <symbol id="svg_125" height="283.5856" width="273.95642" xmlns:xlink="http://www.w3.org/1999/xlink" xmlns="http://www.w3.org/2000/svg" xmlns:svg="http://www.w3.org/2000/svg">
   <title>Atom v2</title>
   <defs>
    <linearGradient id="svg_95">
     <stop stop-color="#1e0c08" id="svg_124" offset="0"/>
     <stop stop-color="#1e0c08" stop-opacity="0" id="svg_123" offset="1"/>
    </linearGradient>
    <linearGradient id="svg_65">
     <stop stop-color="#e2d7d5" id="svg_122" offset="0"/>
     <stop stop-color="#e2d7d5" stop-opacity="0" id="svg_121" offset="1"/>
    </linearGradient>
    <linearGradient id="svg_66">
     <stop stop-color="#ff0b00" offset="0" id="svg_120"/>
     <stop stop-color="#810500" offset="1" id="svg_119"/>
    </linearGradient>
    <linearGradient id="svg_102">
     <stop stop-color="#ffffff" offset="0" id="svg_118"/>
     <stop stop-color="#ffffff" stop-opacity="0" offset="1" id="svg_117"/>
    </linearGradient>
    <linearGradient id="svg_108">
     <stop stop-color="#d9d9b4" offset="0" id="svg_116"/>
     <stop stop-color="#a3a36b" offset="1" id="svg_115"/>
    </linearGradient>
    <linearGradient id="svg_67">
     <stop stop-color="#b6e8ff" offset="0" id="svg_114"/>
     <stop stop-color="#2389db" offset="1" id="svg_113"/>
    </linearGradient>
    <linearGradient y2="1082.9424" x2="211.85287" y1="1137.6046" x1="205.99301" spreadMethod="reflect" gradientTransform="matrix(5.944798,0,0,4.298835,-1448.315,-4215.696)" gradientUnits="userSpaceOnUse" id="svg_112" xlink:href="#svg_67"/>
    <linearGradient y2="1448.4674" x2="189.13556" y1="1448.4674" x1="131.91928" gradientTransform="matrix(7.657335,0,0,3.337415,-1448.315,-4215.696)" gradientUnits="userSpaceOnUse" id="svg_111" xlink:href="#svg_108"/>
    <linearGradient y2="1776.3087" x2="164.79172" y1="1700.754" x1="143.15617" gradientTransform="matrix(8.164449,0,0,3.130118,-1448.315,-4923.433)" gradientUnits="userSpaceOnUse" id="svg_110" xlink:href="#svg_102"/>
    <linearGradient y2="1444.9415" x2="191.07132" y1="1478.1887" x1="191.07132" gradientTransform="matrix(6.886427,0,0,3.711024,-1448.315,-4923.433)" gradientUnits="userSpaceOnUse" id="svg_109" xlink:href="#svg_66"/>
    <linearGradient y2="1634.5474" x2="157.33363" y1="1696.1609" x1="140.25737" gradientTransform="matrix(7.657335,0,0,3.337415,-1448.315,-4923.433)" gradientUnits="userSpaceOnUse" id="svg_107" xlink:href="#svg_108"/>
    <linearGradient y2="1666.985" x2="167.51932" y1="1674.547" x1="175.50798" spreadMethod="pad" gradientTransform="matrix(7.657335,0,0,3.337415,-1448.315,-4923.433)" gradientUnits="userSpaceOnUse" id="svg_106" xlink:href="#svg_102"/>
    <linearGradient y2="1669.3435" x2="147.68718" y1="1674.4733" x1="140.18318" spreadMethod="pad" gradientTransform="matrix(7.657335,0,0,3.337415,-1448.315,-4923.433)" gradientUnits="userSpaceOnUse" id="svg_105" xlink:href="#svg_102"/>
    <linearGradient y2="985.21222" x2="227.17216" y1="1010.1295" x1="222.24202" gradientTransform="matrix(4.586545,0,0,5.571887,-1448.315,-4923.433)" gradientUnits="userSpaceOnUse" id="svg_104" xlink:href="#svg_66"/>
    <linearGradient y2="1068.4087" x2="212.00743" y1="1048.0908" x1="211.96373" gradientTransform="matrix(4.879068,0,0,5.237825,-1448.315,-4923.433)" gradientUnits="userSpaceOnUse" id="svg_103" xlink:href="#svg_102"/>
    <linearGradient y2="1493.8745" x2="182.96735" y1="1437.2679" x1="196.64761" gradientTransform="matrix(6.886427,0,0,3.711024,-1448.315,-4923.433)" gradientUnits="userSpaceOnUse" id="svg_101" xlink:href="#svg_102"/>
    <linearGradient y2="926.67377" x2="247.45398" y1="926.09314" x1="135.36044" gradientUnits="userSpaceOnUse" id="svg_100" xlink:href="#svg_66"/>
    <linearGradient y2="920.96454" x2="253.50688" y1="924.71881" x1="78.03352" gradientUnits="userSpaceOnUse" id="svg_99" xlink:href="#svg_67"/>
    <linearGradient y2="934.98187" x2="197.98094" y1="844.77277" x1="262.63058" gradientTransform="matrix(1.078295,0,0,1.055762,132.0957,-538.0767)" gradientUnits="userSpaceOnUse" id="svg_98" xlink:href="#svg_65"/>
    <radialGradient r="56.42857" fy="916.64789" fx="-109.28571" cy="916.64789" cx="-109.28571" gradientTransform="matrix(1,0,0,0.835443,0,150.8408)" gradientUnits="userSpaceOnUse" id="svg_97" xlink:href="#svg_95"/>
    <linearGradient y2="932.27563" x2="196.6561" y1="864.47351" x1="262.63052" gradientTransform="matrix(0.611664,0,0,0.598882,366.5462,-237.0816)" gradientUnits="userSpaceOnUse" id="svg_96" xlink:href="#svg_65"/>
    <radialGradient r="56.42857" fy="916.64789" fx="-109.28571" cy="916.64789" cx="-109.28571" gradientTransform="matrix(1,0,0,0.835443,0,150.8408)" gradientUnits="userSpaceOnUse" id="svg_94" xlink:href="#svg_95"/>
    <linearGradient y2="934.98187" x2="197.98094" y1="844.77277" x1="262.63058" gradientTransform="matrix(1.078295,0,0,1.055762,132.0957,-538.0767)" gradientUnits="userSpaceOnUse" id="svg_93" xlink:href="#svg_65"/>
    <linearGradient y2="929.54578" x2="287.8085" y1="926.09314" x1="135.36044" gradientUnits="userSpaceOnUse" id="svg_92" xlink:href="#svg_66"/>
    <linearGradient y2="920.96454" x2="253.50688" y1="924.71881" x1="78.03352" gradientUnits="userSpaceOnUse" id="svg_91" xlink:href="#svg_67"/>
    <linearGradient y2="932.27563" x2="196.6561" y1="864.47351" x1="262.63052" gradientTransform="matrix(0.611664,0,0,0.598882,366.5462,-237.0816)" gradientUnits="userSpaceOnUse" id="svg_90" xlink:href="#svg_65"/>
    <linearGradient y2="929.54578" x2="287.8085" y1="926.09314" x1="135.36044" gradientUnits="userSpaceOnUse" id="svg_89" xlink:href="#svg_66"/>
    <linearGradient y2="934.98187" x2="197.98094" y1="844.77277" x1="262.63058" gradientTransform="matrix(1.078295,0,0,1.055762,132.0957,-538.0767)" gradientUnits="userSpaceOnUse" id="svg_88" xlink:href="#svg_65"/>
    <linearGradient y2="920.96454" x2="253.50688" y1="924.71881" x1="78.03352" gradientUnits="userSpaceOnUse" id="svg_87" xlink:href="#svg_67"/>
    <linearGradient y2="932.27563" x2="196.6561" y1="864.47351" x1="262.63052" gradientTransform="matrix(0.611664,0,0,0.598882,366.5462,-237.0816)" gradientUnits="userSpaceOnUse" id="svg_86" xlink:href="#svg_65"/>
    <linearGradient y2="929.54578" x2="287.8085" y1="926.09314" x1="135.36044" gradientUnits="userSpaceOnUse" id="svg_85" xlink:href="#svg_66"/>
    <linearGradient y2="934.98187" x2="197.98094" y1="844.77277" x1="262.63058" gradientTransform="matrix(1.078295,0,0,1.055762,132.0957,-538.0767)" gradientUnits="userSpaceOnUse" id="svg_84" xlink:href="#svg_65"/>
    <linearGradient y2="929.54578" x2="287.8085" y1="926.09314" x1="135.36044" gradientUnits="userSpaceOnUse" id="svg_83" xlink:href="#svg_66"/>
    <linearGradient y2="934.98187" x2="197.98094" y1="844.77277" x1="262.63058" gradientTransform="matrix(1.078295,0,0,1.055762,132.0957,-538.0767)" gradientUnits="userSpaceOnUse" id="svg_82" xlink:href="#svg_65"/>
    <linearGradient y2="929.54578" x2="287.8085" y1="926.09314" x1="135.36044" gradientUnits="userSpaceOnUse" id="svg_81" xlink:href="#svg_66"/>
    <linearGradient y2="934.98187" x2="197.98094" y1="844.77277" x1="262.63058" gradientTransform="matrix(1.078295,0,0,1.055762,132.0957,-538.0767)" gradientUnits="userSpaceOnUse" id="svg_80" xlink:href="#svg_65"/>
    <linearGradient y2="920.96454" x2="253.50688" y1="924.71881" x1="78.03352" gradientUnits="userSpaceOnUse" id="svg_79" xlink:href="#svg_67"/>
    <linearGradient y2="932.27563" x2="196.6561" y1="864.47351" x1="262.63052" gradientTransform="matrix(0.611664,0,0,0.598882,366.5462,-237.0816)" gradientUnits="userSpaceOnUse" id="svg_78" xlink:href="#svg_65"/>
    <linearGradient y2="920.96454" x2="253.50688" y1="924.71881" x1="78.03352" gradientUnits="userSpaceOnUse" id="svg_77" xlink:href="#svg_67"/>
    <linearGradient y2="932.27563" x2="196.6561" y1="864.47351" x1="262.63052" gradientTransform="matrix(0.611664,0,0,0.598882,366.5462,-237.0816)" gradientUnits="userSpaceOnUse" id="svg_76" xlink:href="#svg_65"/>
    <linearGradient y2="920.96454" x2="253.50688" y1="924.71881" x1="78.03352" gradientUnits="userSpaceOnUse" id="svg_75" xlink:href="#svg_67"/>
    <linearGradient y2="932.27563" x2="196.6561" y1="864.47351" x1="262.63052" gradientTransform="matrix(0.611664,0,0,0.598882,366.5462,-237.0816)" gradientUnits="userSpaceOnUse" id="svg_74" xlink:href="#svg_65"/>
    <linearGradient y2="920.96454" x2="253.50688" y1="924.71881" x1="78.03352" gradientUnits="userSpaceOnUse" id="svg_73" xlink:href="#svg_67"/>
    <linearGradient y2="932.27563" x2="196.6561" y1="864.47351" x1="262.63052" gradientTransform="matrix(0.611664,0,0,0.598882,366.5462,-237.0816)" gradientUnits="userSpaceOnUse" id="svg_72" xlink:href="#svg_65"/>
    <linearGradient y2="929.54578" x2="287.8085" y1="926.09314" x1="135.36044" gradientUnits="userSpaceOnUse" id="svg_71" xlink:href="#svg_66"/>
    <linearGradient y2="934.98187" x2="197.98094" y1="844.77277" x1="262.63058" gradientTransform="matrix(1.078295,0,0,1.055762,132.0957,-538.0767)" gradientUnits="userSpaceOnUse" id="svg_70" xlink:href="#svg_65"/>
    <linearGradient y2="929.54578" x2="287.8085" y1="926.09314" x1="135.36044" gradientUnits="userSpaceOnUse" id="svg_69" xlink:href="#svg_66"/>
    <linearGradient y2="934.98187" x2="197.98094" y1="844.77277" x1="262.63058" gradientTransform="matrix(1.078295,0,0,1.055762,132.0957,-538.0767)" gradientUnits="userSpaceOnUse" id="svg_68" xlink:href="#svg_65"/>
    <linearGradient y2="920.96454" x2="253.50688" y1="924.71881" x1="78.03352" gradientUnits="userSpaceOnUse" id="svg_63" xlink:href="#svg_67"/>
    <linearGradient y2="932.27563" x2="196.6561" y1="864.47351" x1="262.63052" gradientTransform="matrix(0.611664,0,0,0.598882,366.5462,-237.0816)" gradientUnits="userSpaceOnUse" id="svg_61" xlink:href="#svg_65"/>
    <linearGradient y2="920.96454" x2="253.50688" y1="924.71881" x1="78.03352" gradientUnits="userSpaceOnUse" id="svg_58" xlink:href="#svg_67"/>
    <linearGradient y2="932.27563" x2="196.6561" y1="864.47351" x1="262.63052" gradientTransform="matrix(0.611664,0,0,0.598882,366.5462,-237.0816)" gradientUnits="userSpaceOnUse" id="svg_56" xlink:href="#svg_65"/>
    <linearGradient y2="920.96454" x2="253.50688" y1="924.71881" x1="78.03352" gradientUnits="userSpaceOnUse" id="svg_53" xlink:href="#svg_67"/>
    <linearGradient y2="932.27563" x2="196.6561" y1="864.47351" x1="262.63052" gradientTransform="matrix(0.611664,0,0,0.598882,366.5462,-237.0816)" gradientUnits="userSpaceOnUse" id="svg_51" xlink:href="#svg_65"/>
    <linearGradient y2="920.96454" x2="253.50688" y1="924.71881" x1="78.03352" gradientUnits="userSpaceOnUse" id="svg_48" xlink:href="#svg_67"/>
    <linearGradient y2="932.27563" x2="196.6561" y1="864.47351" x1="262.63052" gradientTransform="matrix(0.611664,0,0,0.598882,366.5462,-237.0816)" gradientUnits="userSpaceOnUse" id="svg_46" xlink:href="#svg_65"/>
    <linearGradient y2="929.54578" x2="287.8085" y1="926.09314" x1="135.36044" gradientUnits="userSpaceOnUse" id="svg_43" xlink:href="#svg_66"/>
    <linearGradient y2="934.98187" x2="197.98094" y1="844.77277" x1="262.63058" gradientTransform="matrix(1.078295,0,0,1.055762,132.0957,-538.0767)" gradientUnits="userSpaceOnUse" id="svg_41" xlink:href="#svg_65"/>
    <linearGradient y2="929.54578" x2="287.8085" y1="926.09314" x1="135.36044" gradientUnits="userSpaceOnUse" id="svg_38" xlink:href="#svg_66"/>
    <linearGradient y2="934.98187" x2="197.98094" y1="844.77277" x1="262.63058" gradientTransform="matrix(1.078295,0,0,1.055762,132.0957,-538.0767)" gradientUnits="userSpaceOnUse" id="svg_36" xlink:href="#svg_65"/>
    <linearGradient y2="920.96454" x2="253.50688" y1="924.71881" x1="78.03352" gradientUnits="userSpaceOnUse" id="svg_33" xlink:href="#svg_67"/>
    <linearGradient y2="932.27563" x2="196.6561" y1="864.47351" x1="262.63052" gradientTransform="matrix(0.611664,0,0,0.598882,366.5462,-237.0816)" gradientUnits="userSpaceOnUse" id="svg_31" xlink:href="#svg_65"/>
    <linearGradient y2="929.54578" x2="287.8085" y1="926.09314" x1="135.36044" gradientUnits="userSpaceOnUse" id="svg_28" xlink:href="#svg_66"/>
    <linearGradient y2="934.98187" x2="197.98094" y1="844.77277" x1="262.63058" gradientTransform="matrix(1.078295,0,0,1.055762,132.0957,-538.0767)" gradientUnits="userSpaceOnUse" id="svg_26" xlink:href="#svg_65"/>
    <linearGradient y2="929.54578" x2="287.8085" y1="926.09314" x1="135.36044" gradientUnits="userSpaceOnUse" id="svg_23" xlink:href="#svg_66"/>
    <linearGradient y2="934.98187" x2="197.98094" y1="844.77277" x1="262.63058" gradientTransform="matrix(1.078295,0,0,1.055762,132.0957,-538.0767)" gradientUnits="userSpaceOnUse" id="svg_21" xlink:href="#svg_65"/>
    <linearGradient y2="920.96454" x2="253.50688" y1="924.71881" x1="78.03352" gradientUnits="userSpaceOnUse" id="svg_18" xlink:href="#svg_67"/>
    <linearGradient y2="932.27563" x2="196.6561" y1="864.47351" x1="262.63052" gradientTransform="matrix(0.611664,0,0,0.598882,366.5462,-237.0816)" gradientUnits="userSpaceOnUse" id="svg_16" xlink:href="#svg_65"/>
    <linearGradient y2="929.54578" x2="287.8085" y1="926.09314" x1="135.36044" gradientUnits="userSpaceOnUse" id="svg_13" xlink:href="#svg_66"/>
    <linearGradient y2="934.98187" x2="197.98094" y1="844.77277" x1="262.63058" gradientTransform="matrix(1.078295,0,0,1.055762,132.0957,-538.0767)" gradientUnits="userSpaceOnUse" id="svg_11" xlink:href="#svg_65"/>
    <linearGradient y2="929.54578" x2="287.8085" y1="926.09314" x1="135.36044" gradientUnits="userSpaceOnUse" id="svg_8" xlink:href="#svg_66"/>
    <linearGradient y2="934.98187" x2="197.98094" y1="844.77277" x1="262.63058" gradientTransform="matrix(1.078295,0,0,1.055762,132.0957,-538.0767)" gradientUnits="userSpaceOnUse" id="svg_6" xlink:href="#svg_65"/>
   </defs>
   <metadata id="svg_64">image/svg+xmlAtom v22011Jan Helebrant, Marco Colomboatomnuclearradiationcrystal</metadata>
   <g transform="translate(-50.626694,-54.265914)" id="svg_2">
    <g transform="matrix(1.1765827,0,0,1.1765827,-14.542627,-38.338465)" id="svg_3">
     <g transform="matrix(-0.3486013,0.63223657,-0.63223657,-0.3486013,512.45399,47.560168)" id="svg_59">
      <path fill="url(#svg_63)" fill-rule="evenodd" stroke="#000000" stroke-width="4.88352" stroke-linecap="round" stroke-miterlimit="4" stroke-dashoffset="0" transform="matrix(0.349755,-0.446593,0.446593,0.349755,6.931573,84.4092)" d="m274.76151,926.09314c0,38.49457 -31.20598,69.7005 -69.70053,69.7005c-38.49454,0 -69.70053,-31.20593 -69.70053,-69.7005c0,-38.49457 31.20599,-69.7005 69.70053,-69.7005c38.49455,0 69.70053,31.20593 69.70053,69.7005z" id="svg_62"/>
      <path fill="url(#svg_61)" fill-rule="evenodd" id="svg_60" d="m494.28928,280.63608c-13.55328,0 -26.91412,6.0553 -31.95367,18.77798c3.5755,-1.21896 9.10202,0.98306 13.0462,0.98306c20.86838,-0.00003 37.81497,18.40738 37.81497,41.07471c0,1.44052 -0.0614,2.85559 -0.19495,4.258c8.55963,-6.45557 14.18604,-17.19089 14.18604,-29.35922c0,-19.72894 -14.73535,-35.73453 -32.89859,-35.73453z"/>
     </g>
     <g transform="matrix(-0.3486013,0.63223657,-0.63223657,-0.3486013,486.9485,-37.868237)" id="svg_54">
      <path fill="url(#svg_58)" fill-rule="evenodd" stroke="#000000" stroke-width="4.88352" stroke-linecap="round" stroke-miterlimit="4" stroke-dashoffset="0" transform="matrix(0.349755,-0.446593,0.446593,0.349755,6.931573,84.4092)" d="m274.76151,926.09314c0,38.49457 -31.20598,69.7005 -69.70053,69.7005c-38.49454,0 -69.70053,-31.20593 -69.70053,-69.7005c0,-38.49457 31.20599,-69.7005 69.70053,-69.7005c38.49455,0 69.70053,31.20593 69.70053,69.7005z" id="svg_57"/>
      <path fill="url(#svg_56)" fill-rule="evenodd" id="svg_55" d="m494.28928,280.63608c-13.55328,0 -26.91412,6.0553 -31.95367,18.77798c3.5755,-1.21896 9.10202,0.98306 13.0462,0.98306c20.86838,-0.00003 37.81497,18.40738 37.81497,41.07471c0,1.44052 -0.0614,2.85559 -0.19495,4.258c8.55963,-6.45557 14.18604,-17.19089 14.18604,-29.35922c0,-19.72894 -14.73535,-35.73453 -32.89859,-35.73453z"/>
     </g>
     <g id="svg_49" transform="matrix(-0.3486013,0.63223657,-0.63223657,-0.3486013,599.03886,23.935915)">
      <path fill="url(#svg_53)" fill-rule="evenodd" stroke="#000000" stroke-width="4.88352" stroke-linecap="round" stroke-miterlimit="4" stroke-dashoffset="0" id="svg_52" d="m274.76151,926.09314c0,38.49457 -31.20598,69.7005 -69.70053,69.7005c-38.49454,0 -69.70053,-31.20593 -69.70053,-69.7005c0,-38.49457 31.20599,-69.7005 69.70053,-69.7005c38.49455,0 69.70053,31.20593 69.70053,69.7005z" transform="matrix(0.349755,-0.446593,0.446593,0.349755,6.931573,84.4092)"/>
      <path fill="url(#svg_51)" fill-rule="evenodd" d="m494.28928,280.63608c-13.55328,0 -26.91412,6.0553 -31.95367,18.77798c3.5755,-1.21896 9.10202,0.98306 13.0462,0.98306c20.86838,-0.00003 37.81497,18.40738 37.81497,41.07471c0,1.44052 -0.0614,2.85559 -0.19495,4.258c8.55963,-6.45557 14.18604,-17.19089 14.18604,-29.35922c0,-19.72894 -14.73535,-35.73453 -32.89859,-35.73453z" id="svg_50"/>
     </g>
     <g id="svg_44" transform="matrix(-0.3486013,0.63223657,-0.63223657,-0.3486013,574.25815,-64.530186)">
      <path fill="url(#svg_48)" fill-rule="evenodd" stroke="#000000" stroke-width="4.88352" stroke-linecap="round" stroke-miterlimit="4" stroke-dashoffset="0" id="svg_47" d="m274.76151,926.09314c0,38.49457 -31.20598,69.7005 -69.70053,69.7005c-38.49454,0 -69.70053,-31.20593 -69.70053,-69.7005c0,-38.49457 31.20599,-69.7005 69.70053,-69.7005c38.49455,0 69.70053,31.20593 69.70053,69.7005z" transform="matrix(0.349755,-0.446593,0.446593,0.349755,6.931573,84.4092)"/>
      <path fill="url(#svg_46)" fill-rule="evenodd" d="m494.28928,280.63608c-13.55328,0 -26.91412,6.0553 -31.95367,18.77798c3.5755,-1.21896 9.10202,0.98306 13.0462,0.98306c20.86838,-0.00003 37.81497,18.40738 37.81497,41.07471c0,1.44052 -0.0614,2.85559 -0.19495,4.258c8.55963,-6.45557 14.18604,-17.19089 14.18604,-29.35922c0,-19.72894 -14.73535,-35.73453 -32.89859,-35.73453z" id="svg_45"/>
     </g>
     <g transform="matrix(-0.20209654,0.36652995,-0.36652995,-0.20209654,390.0302,90.498979)" id="svg_39">
      <path fill="url(#svg_43)" fill-rule="evenodd" stroke="#000000" stroke-width="4.77836" stroke-linecap="round" stroke-miterlimit="4" stroke-dashoffset="0" transform="matrix(0.616579,-0.787293,0.787293,0.616579,-501.8646,28.67547)" d="m274.76151,926.09314c0,38.49457 -31.20598,69.7005 -69.70053,69.7005c-38.49454,0 -69.70053,-31.20593 -69.70053,-69.7005c0,-38.49457 31.20599,-69.7005 69.70053,-69.7005c38.49455,0 69.70053,31.20593 69.70053,69.7005z" id="svg_42"/>
      <path fill="url(#svg_41)" fill-rule="evenodd" id="svg_40" d="m357.29248,374.60153c-23.89291,0 -47.44659,10.6748 -56.33075,33.10345c6.30319,-2.14883 16.04584,1.73303 22.99899,1.73303c36.78864,-0.00006 66.66351,32.45016 66.66351,72.4101c0,2.53955 -0.10831,5.03409 -0.3436,7.50644c15.08972,-11.38046 25.00836,-30.30563 25.00836,-51.75705c0,-34.77994 -25.97675,-62.99597 -57.99652,-62.99597z"/>
     </g>
     <g id="svg_34" transform="matrix(-0.20209654,0.36652995,-0.36652995,-0.20209654,463.58949,131.05795)">
      <path fill="url(#svg_38)" fill-rule="evenodd" stroke="#000000" stroke-width="4.77836" stroke-linecap="round" stroke-miterlimit="4" stroke-dashoffset="0" id="svg_37" d="m274.76151,926.09314c0,38.49457 -31.20598,69.7005 -69.70053,69.7005c-38.49454,0 -69.70053,-31.20593 -69.70053,-69.7005c0,-38.49457 31.20599,-69.7005 69.70053,-69.7005c38.49455,0 69.70053,31.20593 69.70053,69.7005z" transform="matrix(0.616579,-0.787293,0.787293,0.616579,-501.8646,28.67547)"/>
      <path fill="url(#svg_36)" fill-rule="evenodd" d="m357.29248,374.60153c-23.89291,0 -47.44659,10.6748 -56.33075,33.10345c6.30319,-2.14883 16.04584,1.73303 22.99899,1.73303c36.78864,-0.00006 66.66351,32.45016 66.66351,72.4101c0,2.53955 -0.10831,5.03409 -0.3436,7.50644c15.08972,-11.38046 25.00836,-30.30563 25.00836,-51.75705c0,-34.77994 -25.97675,-62.99597 -57.99652,-62.99597z" id="svg_35"/>
     </g>
     <g transform="matrix(-0.3486013,0.63223657,-0.63223657,-0.3486013,557.84142,-34.756187)" id="svg_29">
      <path fill="url(#svg_33)" fill-rule="evenodd" stroke="#000000" stroke-width="4.88352" stroke-linecap="round" stroke-miterlimit="4" stroke-dashoffset="0" transform="matrix(0.349755,-0.446593,0.446593,0.349755,6.931573,84.4092)" d="m274.76151,926.09314c0,38.49457 -31.20598,69.7005 -69.70053,69.7005c-38.49454,0 -69.70053,-31.20593 -69.70053,-69.7005c0,-38.49457 31.20599,-69.7005 69.70053,-69.7005c38.49455,0 69.70053,31.20593 69.70053,69.7005z" id="svg_32"/>
      <path fill="url(#svg_31)" fill-rule="evenodd" id="svg_30" d="m494.28928,280.63608c-13.55328,0 -26.91412,6.0553 -31.95367,18.77798c3.5755,-1.21896 9.10202,0.98306 13.0462,0.98306c20.86838,-0.00003 37.81497,18.40738 37.81497,41.07471c0,1.44052 -0.0614,2.85559 -0.19495,4.258c8.55963,-6.45557 14.18604,-17.19089 14.18604,-29.35922c0,-19.72894 -14.73535,-35.73453 -32.89859,-35.73453z"/>
     </g>
     <g id="svg_24" transform="matrix(-0.20209654,0.36652995,-0.36652995,-0.20209654,344.64278,172.81533)">
      <path fill="url(#svg_28)" fill-rule="evenodd" stroke="#000000" stroke-width="4.77836" stroke-linecap="round" stroke-miterlimit="4" stroke-dashoffset="0" id="svg_27" d="m274.76151,926.09314c0,38.49457 -31.20598,69.7005 -69.70053,69.7005c-38.49454,0 -69.70053,-31.20593 -69.70053,-69.7005c0,-38.49457 31.20599,-69.7005 69.70053,-69.7005c38.49455,0 69.70053,31.20593 69.70053,69.7005z" transform="matrix(0.616579,-0.787293,0.787293,0.616579,-501.8646,28.67547)"/>
      <path fill="url(#svg_26)" fill-rule="evenodd" d="m357.29248,374.60153c-23.89291,0 -47.44659,10.6748 -56.33075,33.10345c6.30319,-2.14883 16.04584,1.73303 22.99899,1.73303c36.78864,-0.00006 66.66351,32.45016 66.66351,72.4101c0,2.53955 -0.10831,5.03409 -0.3436,7.50644c15.08972,-11.38046 25.00836,-30.30563 25.00836,-51.75705c0,-34.77994 -25.97675,-62.99597 -57.99652,-62.99597z" id="svg_25"/>
     </g>
     <g transform="matrix(-0.20209654,0.36652995,-0.36652995,-0.20209654,418.20207,213.3743)" id="svg_19">
      <path fill="url(#svg_23)" fill-rule="evenodd" stroke="#000000" stroke-width="4.77836" stroke-linecap="round" stroke-miterlimit="4" stroke-dashoffset="0" transform="matrix(0.616579,-0.787293,0.787293,0.616579,-501.8646,28.67547)" d="m274.76151,926.09314c0,38.49457 -31.20598,69.7005 -69.70053,69.7005c-38.49454,0 -69.70053,-31.20593 -69.70053,-69.7005c0,-38.49457 31.20599,-69.7005 69.70053,-69.7005c38.49455,0 69.70053,31.20593 69.70053,69.7005z" id="svg_22"/>
      <path fill="url(#svg_21)" fill-rule="evenodd" id="svg_20" d="m357.29248,374.60153c-23.89291,0 -47.44659,10.6748 -56.33075,33.10345c6.30319,-2.14883 16.04584,1.73303 22.99899,1.73303c36.78864,-0.00006 66.66351,32.45016 66.66351,72.4101c0,2.53955 -0.10831,5.03409 -0.3436,7.50644c15.08972,-11.38046 25.00836,-30.30563 25.00836,-51.75705c0,-34.77994 -25.97675,-62.99597 -57.99652,-62.99597z"/>
     </g>
     <g id="svg_14" transform="matrix(-0.3486013,0.63223657,-0.63223657,-0.3486013,529.83641,16.034764)">
      <path fill="url(#svg_18)" fill-rule="evenodd" stroke="#000000" stroke-width="4.88352" stroke-linecap="round" stroke-miterlimit="4" stroke-dashoffset="0" id="svg_17" d="m274.76151,926.09314c0,38.49457 -31.20598,69.7005 -69.70053,69.7005c-38.49454,0 -69.70053,-31.20593 -69.70053,-69.7005c0,-38.49457 31.20599,-69.7005 69.70053,-69.7005c38.49455,0 69.70053,31.20593 69.70053,69.7005z" transform="matrix(0.349755,-0.446593,0.446593,0.349755,6.931573,84.4092)"/>
      <path fill="url(#svg_16)" fill-rule="evenodd" d="m494.28928,280.63608c-13.55328,0 -26.91412,6.0553 -31.95367,18.77798c3.5755,-1.21896 9.10202,0.98306 13.0462,0.98306c20.86838,-0.00003 37.81497,18.40738 37.81497,41.07471c0,1.44052 -0.0614,2.85559 -0.19495,4.258c8.55963,-6.45557 14.18604,-17.19089 14.18604,-29.35922c0,-19.72894 -14.73535,-35.73453 -32.89859,-35.73453z" id="svg_15"/>
     </g>
     <g transform="matrix(-0.20209654,0.36652995,-0.36652995,-0.20209654,431.31579,166.58351)" id="svg_9">
      <path fill="url(#svg_13)" fill-rule="evenodd" stroke="#000000" stroke-width="4.77836" stroke-linecap="round" stroke-miterlimit="4" stroke-dashoffset="0" transform="matrix(0.616579,-0.787293,0.787293,0.616579,-501.8646,28.67547)" d="m274.76151,926.09314c0,38.49457 -31.20598,69.7005 -69.70053,69.7005c-38.49454,0 -69.70053,-31.20593 -69.70053,-69.7005c0,-38.49457 31.20599,-69.7005 69.70053,-69.7005c38.49455,0 69.70053,31.20593 69.70053,69.7005z" id="svg_12"/>
      <path fill="url(#svg_11)" fill-rule="evenodd" id="svg_10" d="m357.29248,374.60153c-23.89291,0 -47.44659,10.6748 -56.33075,33.10345c6.30319,-2.14883 16.04584,1.73303 22.99899,1.73303c36.78864,-0.00006 66.66351,32.45016 66.66351,72.4101c0,2.53955 -0.10831,5.03409 -0.3436,7.50644c15.08972,-11.38046 25.00836,-30.30563 25.00836,-51.75705c0,-34.77994 -25.97675,-62.99597 -57.99652,-62.99597z"/>
     </g>
     <g id="svg_4" transform="matrix(-0.20209654,0.36652995,-0.36652995,-0.20209654,380.52485,138.57851)">
      <path fill="url(#svg_8)" fill-rule="evenodd" stroke="#000000" stroke-width="4.77836" stroke-linecap="round" stroke-miterlimit="4" stroke-dashoffset="0" id="svg_7" d="m274.76151,926.09314c0,38.49457 -31.20598,69.7005 -69.70053,69.7005c-38.49454,0 -69.70053,-31.20593 -69.70053,-69.7005c0,-38.49457 31.20599,-69.7005 69.70053,-69.7005c38.49455,0 69.70053,31.20593 69.70053,69.7005z" transform="matrix(0.616579,-0.787293,0.787293,0.616579,-501.8646,28.67547)"/>
      <path fill="url(#svg_6)" fill-rule="evenodd" d="m357.29248,374.60153c-23.89291,0 -47.44659,10.6748 -56.33075,33.10345c6.30319,-2.14883 16.04584,1.73303 22.99899,1.73303c36.78864,-0.00006 66.66351,32.45016 66.66351,72.4101c0,2.53955 -0.10831,5.03409 -0.3436,7.50644c15.08972,-11.38046 25.00836,-30.30563 25.00836,-51.75705c0,-34.77994 -25.97675,-62.99597 -57.99652,-62.99597z" id="svg_5"/>
     </g>
    </g>
   </g>
  </symbol>
 </defs>
 <g>
  <title>Layer 1</title>
  <text stroke="#000000" transform="matrix(2.454545497894286,0,0,2.454545497894286,-288.8920550793409,-419.8693289384245) " xml:space="preserve" text-anchor="middle" font-family="serif" font-size="24" id="svg_130" y="266.14093" x="231.31414" stroke-linecap="null" stroke-linejoin="null" stroke-dasharray="null" stroke-width="0" fill="#000000">⋈</text>
  <text id="svg_133" stroke="#000000" transform="matrix(2.454545497894286,0,0,2.454545497894286,-288.8920550793409,-419.8693289384245) " xml:space="preserve" text-anchor="middle" font-family="serif" font-size="24" y="307.84377" x="252.95766" stroke-linecap="null" stroke-linejoin="null" stroke-dasharray="null" stroke-width="0" fill="#000000">⋈</text>
  <text id="svg_134" stroke="#000000" transform="matrix(2.454545497894286,0,0,2.454545497894286,-288.8920550793409,-419.8693289384245) " xml:space="preserve" text-anchor="middle" font-family="serif" font-size="24" y="285.84377" x="211.80951" stroke-linecap="null" stroke-linejoin="null" stroke-dasharray="null" stroke-width="0" fill="#000000">⋈</text>
  <text id="svg_136" stroke="#000000" transform="matrix(2.454545497894286,0,0,2.454545497894286,-288.8920550793409,-419.8693289384245) " xml:space="preserve" text-anchor="middle" font-family="serif" font-size="24" y="307.84348" x="252.13822" stroke-linecap="null" stroke-linejoin="null" stroke-dasharray="null" stroke-width="0" fill="#000000">⋈</text>
  <text id="svg_137" stroke="#000000" transform="matrix(2.454545497894286,0,0,2.454545497894286,-288.8920550793409,-419.8693289384245) " xml:space="preserve" text-anchor="middle" font-family="serif" font-size="24" y="307.43607" x="252.13822" stroke-linecap="null" stroke-linejoin="null" stroke-dasharray="null" stroke-width="0" fill="#000000">⋈</text>
  <text id="svg_139" stroke="#000000" transform="matrix(2.454545497894286,0,0,2.454545497894286,-288.8920550793409,-419.8693289384245) " xml:space="preserve" text-anchor="middle" font-family="serif" font-size="24" y="262.22021" x="278.21288" stroke-linecap="null" stroke-linejoin="null" stroke-dasharray="null" stroke-width="0" fill="#000000">⋈</text>
  <use x="496.69939" y="339.46083" transform="matrix(1.0998659914685405,0,0,1.0998659914685405,-385.30359313489316,-290.13518360157104) " xlink:href="#svg_125" id="svg_126"/>
  <text id="svg_131" stroke="#000000" transform="matrix(2.454545497894286,0,0,2.454545497894286,-288.8920550793409,-419.8693289384245) " xml:space="preserve" text-anchor="middle" font-family="serif" font-size="24" y="265.80442" x="231.8234" stroke-linecap="null" stroke-linejoin="null" stroke-dasharray="null" stroke-width="0" fill="#000000">⋈</text>
  <text id="svg_132" stroke="#000000" transform="matrix(2.454545497894286,0,0,2.454545497894286,-288.8920550793409,-419.8693289384245) " xml:space="preserve" text-anchor="middle" font-family="serif" font-size="24" y="280.95488" x="258.66136" stroke-linecap="null" stroke-linejoin="null" stroke-dasharray="null" stroke-width="0" fill="#000000">⋈</text>
  <text id="svg_135" stroke="#000000" transform="matrix(2.454545497894286,0,0,2.454545497894286,-288.8920550793409,-419.8693289384245) " xml:space="preserve" text-anchor="middle" font-family="serif" font-size="24" y="284.21385" x="209.76785" stroke-linecap="null" stroke-linejoin="null" stroke-dasharray="null" stroke-width="0" fill="#000000">⋈</text>
  <text id="svg_138" stroke="#000000" transform="matrix(2.454545497894286,0,0,2.454545497894286,-288.8920550793409,-419.8693289384245) " xml:space="preserve" text-anchor="middle" font-family="serif" font-size="24" y="238.10679" x="235.79158" stroke-linecap="null" stroke-linejoin="null" stroke-dasharray="null" stroke-width="0" fill="#000000">⋈</text>
  <text id="svg_140" stroke="#000000" transform="matrix(2.454545497894286,0,0,2.454545497894286,-288.8920550793409,-419.8693289384245) " xml:space="preserve" text-anchor="middle" font-family="serif" font-size="24" y="262.22021" x="278.62029" stroke-linecap="null" stroke-linejoin="null" stroke-dasharray="null" stroke-width="0" fill="#000000">⋈</text>
  <text id="svg_141" stroke="#000000" transform="matrix(2.454545497894286,0,0,2.454545497894286,-288.8920550793409,-419.8693289384245) " xml:space="preserve" text-anchor="middle" font-family="serif" font-size="24" y="307.44243" x="252.54621" stroke-linecap="null" stroke-linejoin="null" stroke-dasharray="null" stroke-width="0" fill="#000000">⋈</text>
 </g>
</svg>